<?xml version="1.0" encoding="UTF-8"?>
<svg id="_Слой_1" data-name="Слой_1" xmlns="http://www.w3.org/2000/svg" version="1.1" viewBox="0 0 3792 2713">
  <!-- Generator: Adobe Illustrator 29.1.0, SVG Export Plug-In . SVG Version: 2.1.0 Build 142)  -->
  <defs>
    <style>
      .st0 {
        fill: #cb4d60;
      }

      .st1 {
        fill: #ea415b;
      }

      .st2 {
        fill: #e7415b;
      }

      .st3 {
        fill: #c8e7df;
      }

      .st4 {
        fill: #eb415b;
      }

      .st5 {
        fill: #dbfcf2;
      }

      .st6 {
        fill: #b2d0c9;
      }

      .st7 {
        fill: #d8faf0;
      }

      .st8 {
        fill: #86bfc4;
      }

      .st9 {
        fill: #d5f8ec;
      }

      .st10 {
        fill: #dcfef4;
      }

      .st11 {
        fill: #ea435b;
      }

      .st12 {
        fill: #201600;
      }

      .st13 {
        fill: #87c6cc;
      }

      .st14 {
        fill: #84b9be;
      }

      .st15 {
        fill: #eb445d;
      }

      .st16 {
        fill: #dbfbf1;
      }

      .st17 {
        fill: #dcfdf3;
      }
    </style>
  </defs>
  <path class="st12" d="M1901.1,622.2c1.3,0,2.6,0,3.9,0,19.8,0,39.4.5,59.2,2.2,1.4.1,2.7.2,4.1.3,9.3.8,18.6,1.7,27.9,2.7,1,0,1.9.2,3,.3,28.3,2.9,56.7,8.9,84.3,16,2.8.7,5.7,1.4,8.5,2.1,16.1,3.8,31.7,8.8,47.3,14,1.9.6,3.7,1.2,5.6,1.9,26.8,8.9,52.9,19.3,78.4,31.4,3,1.4,6.1,2.9,9.1,4.3,21,9.9,41.2,20.8,60.8,33.1q-3,1-5.4,0c-1-.5-1.9-1-2.9-1.5q-1.6-.8-3.3-1.7c-.6-.3-1.2-.6-1.8-.9-3.2-1.6-6.3-3.2-9.5-4.9-.7-.3-1.3-.7-2-1-69.9-35.2-147.3-59.8-224.8-70.6-3.4-.5-6.8-1-10.2-1.5-32.7-4.7-65.3-6.5-98.3-6.4-4.5,0-9.1,0-13.6,0-23.2,0-46.1,1-69.1,3.4-2,.2-4,.4-6,.6-4.8.5-9.6,1.1-14.4,1.6q-1.3.2-2.5.3c-75.2,9.3-149.6,31.2-218.2,63.4-1,.4-1.9.9-2.9,1.4-58.1,27.3-112.8,61.4-162.1,102.6-.5.4-1,.9-1.6,1.3-6.4,5.4-12.8,10.8-18.9,16.4-2.1,1.9-4.2,3.8-6.4,5.6-11,9.6-21.4,19.8-31.7,30.1-.9.9-1.9,1.8-2.8,2.8-4.5,4.5-8.9,9.1-13.1,14-2.4,2.8-4.9,5.4-7.4,8.1-4.5,4.8-8.7,9.8-12.9,14.9-2,2.5-4.1,4.9-6.1,7.3-6.5,7.6-12.5,15.4-18.5,23.4-1.5,2-3,4-4.5,5.9-13.3,17.4-25.6,35.5-37.1,54.2-.5.8-1,1.6-1.5,2.4-8.6,14-16.7,28.2-24.5,42.6-.5.9-1,1.9-1.5,2.8-38.5,70.7-64,149.5-83.1,276.5-.2,2.5-.5,5-.8,7.5-5.1,47.7-4.7,97.5.4,145.1,0,.9.2,1.7.3,2.6,2,18.9,4.4,37.7,8.3,56.3.6,2.8,1,5.7,1.4,8.5,2.1,13.7,5.6,27.2,9,40.6.3,1.2.6,2.5.9,3.7,10.2,40.1,23.4,79.2,39.9,117.2q.5,1.2,1.1,2.4c4.4,10.1,9.1,20,14.1,29.8.9,1.8,1.8,3.6,2.7,5.4,9,18,18.7,35.3,29.2,52.5q.9,1.5,1.8,3c6.6,10.9,13.5,21.6,20.8,32.1,1.4,2,2.9,4.1,4.3,6.1,6.6,9.5,13.5,18.7,20.6,27.8,1.5,1.9,2.9,3.8,4.4,5.7,5.1,6.6,10.4,13,15.8,19.3,3.1,3.6,6.2,7.3,9.2,11,3,3.7,6.1,7.1,9.5,10.4,1.8,1.8,3.4,3.6,5,5.5,3.5,4,7.2,7.8,11.1,11.5,2.1,2.1,4,4.3,5.9,6.5,3.6,4.2,7.6,8,11.7,11.7,4.6,4.2,9.1,8.5,13.5,12.9,1.7,1.7,3.5,3.3,5.3,4.9,3,2.6,6,5.3,9,8,4.7,4.3,9.6,8.3,14.5,12.3,1.9,1.5,3.7,3,5.6,4.6,1.4,1.1,2.8,2.3,4.2,3.4.7.5,1.3,1.1,2,1.6,4.5,3.7,9.1,7.2,13.8,10.7-4,0-6-1.9-9.1-4.2-.6-.4-1.2-.9-1.8-1.3-7.1-5.2-14-10.5-21-15.9-1.3-1-2.6-2-3.9-3-8.7-6.7-17-13.7-25.2-20.9-3.1-2.7-6.3-5.4-9.4-8.1-.6-.5-1.1-1-1.7-1.5-2.6-2.2-5.2-4.4-7.8-6.6-2.2-1.9-4.3-3.8-6.3-5.9-2-2-4-4-6-6-4.1-4.1-8.3-8.2-12.4-12.3-2.5-2.5-5-4.9-7.5-7.4-2.9-2.9-5.8-5.7-8.7-8.6-.9-.9-1.8-1.7-2.7-2.6-5.2-5.2-9.9-10.5-14.5-16.3-2.7-3.3-5.5-6.5-8.3-9.7-5.6-6.4-10.9-13-16.1-19.8-1.6-2.1-3.2-4.1-4.8-6.2-24.7-31.4-46.4-64.8-65.7-99.8-.6-1.1-1.2-2.1-1.8-3.2-23.5-42.6-42.3-87.5-57.2-133.8-.3-.8-.5-1.6-.8-2.4-9-27.6-16.1-56-21-84.7-.1-.8-.3-1.6-.4-2.4-.1-.7-.2-1.4-.3-2.1-.4-2-.9-4.1-1.4-6.1-1.2-4.7-1.8-9.4-2.4-14.2-.1-.9-.2-1.9-.4-2.9-.4-3.1-.8-6.1-1.2-9.2-.1-1-.3-2.1-.4-3.2-1.7-13.3-3.3-26.6-4.5-40-.1-1.2-.2-2.4-.3-3.7-1.7-19.3-2.1-38.6-2-58,0-1.2,0-2.3,0-3.5,0-18.6.5-37.1,2.2-55.7q0-1.1.2-2.2c4.8-53.9,13.2-108.1,29.8-159.8q.3-1,.6-1.9c18.3-57.2,41.6-112.4,72.4-164.1q.8-1.3,1.6-2.7c9.2-15.5,19.1-30.5,29.4-45.3.5-.7,1-1.4,1.5-2.2,6.9-9.8,14.1-19.3,21.5-28.8q.7-.9,1.5-1.9c5.5-7.2,11.3-14.2,17.2-21.1,2.9-3.4,5.8-6.8,8.6-10.3,5.8-7.2,12.2-13.8,18.6-20.4,2.2-2.3,4.3-4.6,6.5-6.9.7-.8,1.4-1.5,2.1-2.3,1.3-1.4,2.7-2.9,4-4.3q10.8-11.5,16.4-16.2c3-2.6,5.8-5.3,8.6-8.1,4-4,8.2-7.8,12.5-11.5,1.1-.9,2.1-1.8,3.2-2.7,3-2.6,6-5.2,9.1-7.8,1.7-1.4,3.3-2.9,5-4.3,7.9-6.8,16.2-13.2,24.6-19.5,2.1-1.6,4.3-3.3,6.4-4.9,11.5-8.9,23.5-17,35.7-25.1q1.3-.8,2.5-1.7c10.4-6.9,20.9-13.6,31.7-19.9q1.4-.8,2.8-1.6c13.5-7.9,27.3-15.3,41.2-22.4.7-.4,1.5-.8,2.3-1.2,4.6-2.3,9.1-4.6,13.7-6.8.7-.3,1.4-.7,2.1-1,15-7.4,30.4-13.7,45.9-20,.9-.4,1.8-.7,2.8-1.1,24.5-9.8,49.8-18,75.2-24.9.8-.2,1.7-.5,2.5-.7,15.6-4.2,31.3-7.8,47.1-10.9,1.2-.2,2.4-.5,3.6-.7,17.5-3.5,35-6.8,52.8-8.6,1.6-.2,3.3-.3,4.9-.5,5.5-.6,11-1.1,16.5-1.7.9,0,1.7-.2,2.6-.3,23.3-2.3,46.5-2.8,69.9-2.7Z"/>
  <path class="st13" d="M1870.9,600.8c1.3,0,2.6,0,3.9,0,19.8,0,39.4.5,59.2,2.2,1.4.1,2.7.2,4.1.3,9.3.8,18.6,1.7,27.9,2.7,1,0,1.9.2,3,.3,28.3,2.9,56.7,8.9,84.3,16,2.8.7,5.7,1.4,8.5,2.1,16.1,3.8,31.7,8.8,47.3,14,1.9.6,3.7,1.2,5.6,1.9,26.8,8.9,52.9,19.3,78.4,31.4,3,1.4,6.1,2.9,9.1,4.3,20.5,9.7,40.3,20.5,59.8,32.1,10,6,20.2,11.6,30.5,17.1,37.8,20.2,73.7,43.6,107.5,69.9.6.5,1.3,1,1.9,1.5,7.5,5.8,14.8,11.8,22,17.9,2.9,2.5,5.9,4.9,8.9,7.4,3.3,2.7,6.6,5.4,9.9,8.2.6.5,1.3,1.1,1.9,1.7q1.4,1.4,1.4,3.4.9.4,1.8.8c2.3,1.2,3.7,2.5,5.5,4.4,2.3,2.5,4.8,4.7,7.3,6.9,5.2,4.5,10.1,9.4,15,14.4.9.9,1.8,1.8,2.7,2.7,4.5,4.5,8.9,9.1,13.1,14,2.7,3.1,5.6,6.2,8.5,9.2,4.9,5.2,9.5,10.4,13.9,16,2,2.5,4,4.9,6.1,7.2,6.5,7.5,12.5,15.4,18.5,23.3,1.6,2.1,3.2,4.1,4.8,6.2,8.6,11,16.4,22.6,24.1,34.3,1.5,2.3,3,4.6,4.6,6.9,6.8,10,13,20.4,19.2,30.8.5.8,1,1.6,1.5,2.5,31.4,53.3,55.1,110.3,72.9,169.5.5,1.8,1.1,3.6,1.6,5.4,9.8,32.6,16.8,67,20.6,100.8.4,2.8.8,5.5,1.3,8.2,1.4,8.3,2.1,16.7,2.8,25.1.3,2.8.5,5.7.8,8.5,1.9,21,2.6,42,2.6,63.1,0,1.1,0,2.2,0,3.3-.1,55.5-6.3,110.3-18.5,164.5-.7,3-1.3,5.9-1.9,8.9-19.5,90.1-60.2,177.3-149.8,303.2-1.4,1.8-2.9,3.5-4.3,5.3-8.8,10.7-17.8,21.1-27.3,31.2-1.3,1.4-2.6,2.8-3.9,4.3-5.9,6.5-12,12.8-18.2,19-1,1-1.9,1.9-2.9,2.9-1.4,1.4-2.7,2.7-4.1,4.1-.8.8-1.6,1.6-2.4,2.4q-2,1.7-4,1.7c-.3.6-.5,1.2-.8,1.8-1.4,2.5-2.9,4-5.1,5.9-.7.6-1.4,1.2-2.1,1.8-2,1.5-3.8,2.6-6.1,3.6v2q-1.3,1.3-3.2,2.9c-.7.6-1.5,1.2-2.2,1.9-.9.7-1.7,1.4-2.6,2.2-1,.9-2,1.7-3,2.6-12.7,10.8-25.7,21.3-39,31.4-.7.5-1.4,1.1-2.1,1.6-22.3,17.2-46.2,33.1-70.7,47.1-2.3,1.3-4.6,2.7-6.9,4.1-48.7,28.6-100.6,50.2-154.3,67.2q-1.8.6-3.6,1.1c-20.2,6.4-40.8,11.2-61.4,15.9-1.2.3-2.3.5-3.6.8-6.8,1.5-13.6,2.9-20.4,4.2q-1.6.3-3.2.6c-16.8,3.2-33.7,5.3-50.8,7.1-1,.1-2,.2-3,.3-2.9.3-5.7.6-8.6.9-.8,0-1.7.2-2.5.3-14.2,1.5-28.3,1.9-42.6,2-.9,0-1.8,0-2.8,0-4.9,0-9.8,0-14.7,0-4,0-7.9,0-11.9,0-31.2.2-62.3-.6-93.2-5.5-4.2-.7-8.5-1.2-12.8-1.7-35.7-4.3-71.7-12.3-106-23q-1.7-.5-3.5-1.1c-41.1-12.9-81.1-28.3-119.5-47.9-2.2-1.1-4.4-2.2-6.6-3.3-27.6-13.5-54.1-29.4-79.4-46.7-.8-.5-1.6-1.1-2.4-1.6-13.2-9-26-18.6-38.6-28.4-.7-.5-1.4-1-2.1-1.6-8.3-6.4-16.3-13.1-24.2-19.9-1.7-1.5-3.4-2.9-5.2-4.4-14.7-12.4-28.4-25.7-41.9-39.3-2.2-2.2-4.5-4.5-6.7-6.7-1.5-1.5-2.9-2.9-4.4-4.4q-1-1-2-2c-3.8-3.9-7.5-7.8-11.1-12-2.1-2.4-4.2-4.7-6.4-7.1-4.5-4.9-8.7-9.9-12.8-15.1-1.5-1.8-3-3.6-4.5-5.4-8.4-10-16.3-20.3-24.1-30.8-1.1-1.6-2.3-3.1-3.4-4.6-19.9-26.8-37.6-55.4-53.3-84.8-.4-.8-.9-1.7-1.4-2.5-42.9-80.2-70.7-166.9-88.5-305.5-.1-1.9-.3-3.9-.4-5.8-1.1-16.2-1-32.5-1-48.8,0-.8,0-1.6,0-2.4,0-61.5,6.6-123.4,22.3-182.9.2-.7.4-1.4.6-2.2,1.2-4.4,2.4-8.9,3.7-13.3.5-1.8,1-3.6,1.6-5.5,18.8-66.1,46.4-129.4,82.2-188.1.6-1.1,1.3-2.1,2-3.2,8.5-14,17.5-27.5,27-40.8,1.1-1.6,2.3-3.2,3.4-4.8,6.6-9.3,13.5-18.4,20.6-27.2.8-.9,1.5-1.9,2.3-2.9,8-9.8,16.1-19.5,24.7-28.9,1.8-2,3.6-4,5.3-6.1,9.3-10.6,19-20.7,29-30.6,2-2,4-4,5.9-5.9q11.2-11.2,17.2-16.3c2.6-2.2,5-4.5,7.4-6.8,4.6-4.3,9.4-8.4,14.3-12.3,2.6-2.1,5.1-4.2,7.6-6.3,6.9-5.9,14-11.5,21.3-17,.7-.5,1.4-1,2.1-1.6,23.8-17.8,48.2-34.4,73.9-49.4.7-.4,1.5-.9,2.2-1.3,15.6-9.2,31.6-17.5,47.8-25.7q1.6-.8,3.2-1.6c36-18,74.2-33.2,112.8-44.4.9-.3,1.8-.5,2.7-.8,42.3-12.5,86.1-21.3,129.9-26.4.7,0,1.3-.2,2-.2,5.1-.6,10.2-1.1,15.4-1.6.9,0,1.9-.2,2.9-.3,21.7-2,43.3-2.1,65-2.1.9,0,1.8,0,2.7,0,28.6,0,57,.7,85.4,4.4q1.3.2,2.7.3c13.1,1.7,26.2,3.6,39.3,5.7,1.2.2,2.5.4,3.8.6,54.3,8.8,108.4,25.5,159.2,46.4-66.6-32.9-140.2-55.3-213.7-65.5-3.4-.5-6.8-1-10.2-1.5-32.7-4.7-65.3-6.5-98.3-6.4-4.5,0-9.1,0-13.6,0-23.2,0-46.1,1-69.1,3.4-2,.2-4,.4-6,.6-4.8.5-9.6,1.1-14.4,1.6q-1.3.2-2.5.3c-75.2,9.3-149.6,31.2-218.2,63.4-1,.4-1.9.9-2.9,1.4-58.1,27.3-112.8,61.4-162.1,102.6-.5.4-1,.9-1.6,1.3-6.4,5.4-12.8,10.8-18.9,16.4-2.1,1.9-4.2,3.8-6.4,5.6-11,9.6-21.4,19.8-31.7,30.1-.9.9-1.9,1.8-2.8,2.8-4.5,4.5-8.9,9.1-13.1,14-2.4,2.8-4.9,5.4-7.4,8.1-4.5,4.8-8.7,9.8-12.9,14.9-2,2.5-4.1,4.9-6.1,7.3-6.5,7.6-12.5,15.4-18.5,23.4-1.5,2-3,4-4.5,5.9-13.3,17.4-25.6,35.5-37.1,54.2-.5.8-1,1.6-1.5,2.4-8.6,14-16.7,28.2-24.5,42.6-.5.9-1,1.9-1.5,2.8-38.5,70.7-64,149.5-83.1,276.5-.2,2.5-.5,5-.8,7.5-5.1,47.7-4.7,97.5.4,145.1,0,.9.2,1.7.3,2.6,2,18.9,4.4,37.7,8.3,56.3.6,2.8,1,5.7,1.4,8.5,2.1,13.7,5.6,27.2,9,40.6.3,1.2.6,2.5.9,3.7,10.2,40.1,23.4,79.2,39.9,117.2q.5,1.2,1.1,2.4c4.4,10.1,9.1,20,14.1,29.8.9,1.8,1.8,3.6,2.7,5.4,9,18,18.7,35.3,29.2,52.5q.9,1.5,1.8,3c6.6,10.9,13.5,21.6,20.8,32.1,1.4,2,2.9,4.1,4.3,6.1,6.6,9.5,13.5,18.7,20.6,27.8,1.5,1.9,2.9,3.8,4.4,5.7,5.1,6.6,10.4,13,15.8,19.3,3.1,3.6,6.2,7.3,9.2,11,3,3.7,6.1,7.1,9.5,10.4,1.8,1.8,3.4,3.6,5,5.5,3.5,4,7.2,7.8,11.1,11.5,2.1,2.1,4,4.3,5.9,6.5,3.6,4.2,7.6,8,11.7,11.7,4.6,4.2,9.1,8.5,13.5,12.9,1.7,1.7,3.5,3.3,5.3,4.9,3,2.6,6,5.3,9,8,4.7,4.3,9.6,8.3,14.5,12.3,1.9,1.5,3.7,3,5.6,4.6,1.4,1.1,2.8,2.3,4.2,3.4.7.5,1.3,1.1,2,1.6,4.5,3.7,9.1,7.2,13.8,10.7-4,0-6-1.9-9.1-4.2-.6-.4-1.2-.9-1.8-1.3-7.1-5.2-14-10.5-21-15.9-1.3-1-2.6-2-3.9-3-8.7-6.7-17-13.7-25.2-20.9-3.1-2.7-6.3-5.4-9.4-8.1-.6-.5-1.1-1-1.7-1.5-2.6-2.2-5.2-4.4-7.8-6.6-2.2-1.9-4.3-3.8-6.3-5.9-2-2-4-4-6-6-4.1-4.1-8.3-8.2-12.4-12.3-2.5-2.5-5-4.9-7.5-7.4-2.9-2.9-5.8-5.7-8.7-8.6-.9-.9-1.8-1.7-2.7-2.6-5.2-5.2-9.9-10.5-14.5-16.3-2.7-3.3-5.5-6.5-8.3-9.7-5.6-6.4-10.9-13-16.1-19.8-1.6-2.1-3.2-4.1-4.8-6.2-24.7-31.4-46.4-64.8-65.7-99.8-.6-1.1-1.2-2.1-1.8-3.2-23.5-42.6-42.3-87.5-57.2-133.8-.3-.8-.5-1.6-.8-2.4-9-27.6-16.1-56-21-84.7-.1-.8-.3-1.6-.4-2.4-.1-.7-.2-1.4-.3-2.1-.4-2-.9-4.1-1.4-6.1-1.2-4.7-1.8-9.4-2.4-14.2-.1-.9-.2-1.9-.4-2.9-.4-3.1-.8-6.1-1.2-9.2-.1-1-.3-2.1-.4-3.2-1.7-13.3-3.3-26.6-4.5-40-.1-1.2-.2-2.4-.3-3.7-1.7-19.3-2.1-38.6-2-58,0-1.2,0-2.3,0-3.5,0-18.6.5-37.1,2.2-55.7q0-1.1.2-2.2c4.8-53.9,13.2-108.1,29.8-159.8q.3-1,.6-1.9c18.3-57.2,41.6-112.4,72.4-164.1q.8-1.3,1.6-2.7c9.2-15.5,19.1-30.5,29.4-45.3.5-.7,1-1.4,1.5-2.2,6.9-9.8,14.1-19.3,21.5-28.8q.7-.9,1.5-1.9c5.5-7.2,11.3-14.2,17.2-21.1,2.9-3.4,5.8-6.8,8.6-10.3,5.8-7.2,12.2-13.8,18.6-20.4,2.2-2.3,4.3-4.6,6.5-6.9.7-.8,1.4-1.5,2.1-2.3,1.3-1.4,2.7-2.9,4-4.3q10.8-11.5,16.4-16.2c3-2.6,5.8-5.3,8.6-8.1,4-4,8.2-7.8,12.5-11.5,1.1-.9,2.1-1.8,3.2-2.7,3-2.6,6-5.2,9.1-7.8,1.7-1.4,3.3-2.9,5-4.3,7.9-6.8,16.2-13.2,24.6-19.5,2.1-1.6,4.3-3.3,6.4-4.9,11.5-8.9,23.5-17,35.7-25.1q1.3-.8,2.5-1.7c10.4-6.9,20.9-13.6,31.7-19.9q1.4-.8,2.8-1.6c13.5-7.9,27.3-15.3,41.2-22.4.7-.4,1.5-.8,2.3-1.2,4.6-2.3,9.1-4.6,13.7-6.8.7-.3,1.4-.7,2.1-1,15-7.4,30.4-13.7,45.9-20,.9-.4,1.8-.7,2.8-1.1,24.5-9.8,49.8-18,75.2-24.9.8-.2,1.7-.5,2.5-.7,15.6-4.2,31.3-7.8,47.1-10.9,1.2-.2,2.4-.5,3.6-.7,17.5-3.5,35-6.8,52.8-8.6,1.6-.2,3.3-.3,4.9-.5,5.5-.6,11-1.1,16.5-1.7.9,0,1.7-.2,2.6-.3,23.3-2.3,46.5-2.8,69.9-2.7ZM1877.8,679.8c-1,0-2.1.2-3.2.3-20.4,1.7-40.6,4.2-60.8,7.7q-1.1.2-2.2.4c-18.2,3.1-36.4,6.4-54.1,11.8-2.7.8-5.3,1.5-8,2.1-88.9,21.7-174.2,65.2-246.7,120.5-1.7,1.3-3.4,2.6-5.1,3.8-12.2,9.2-24,18.9-35.2,29.3-3.3,3-6.7,5.7-10.2,8.4-2,1.7-3.9,3.5-5.7,5.3-1.8,1.8-3.6,3.6-5.4,5.4-4,4-8,7.9-11.9,11.9-1.7,1.7-3.4,3.4-5.1,5.1-2.5,2.5-5,5-7.5,7.4-.8.8-1.5,1.5-2.3,2.3-4.1,4.1-8,8.3-11.8,12.7-2.1,2.4-4.2,4.7-6.4,7-4.1,4.5-8,9.1-11.8,13.9-2.4,2.9-4.8,5.8-7.2,8.7-9.3,11.2-17.9,22.9-26.4,34.7-1.1,1.6-2.3,3.2-3.4,4.8-21.9,30.5-40.5,63.1-57.3,96.6-.5,1-1,2-1.5,3-32.8,65.9-54.5,138.1-64.5,211q-.1,1-.3,2c-6.9,51.1-9.8,103.3-4.9,154.7.2,2.5.5,5,.7,7.5,2.4,25.5,5.5,50.6,10.5,75.7.4,2.1.8,4.1,1.2,6.2,5.3,27.3,12.9,54.1,21.7,80.5,1,2.9,1.9,5.7,2.8,8.6,8.7,27.7,20.7,54.6,33.3,80.7.5,1,1,2.1,1.5,3.1,7.2,15,15.1,29.5,23.5,43.9q.7,1.2,1.4,2.5c22.2,38.4,48.7,75.7,78.6,108.4,1.8,2,3.6,4,5.3,6,9.8,11.2,20.2,21.9,30.7,32.4,2.5,2.5,5,5,7.5,7.5,1.6,1.6,3.2,3.2,4.8,4.8q1.1,1.1,2.3,2.3c.7.7,1.4,1.4,2.1,2.1.6.6,1.2,1.2,1.8,1.8q1.5,1.5,3.5,1.3v2c1.5,1.4,3.1,2.7,4.8,3.9,4.3,3.4,8.3,6.9,12.3,10.6,5.1,4.8,10.4,9.2,15.9,13.4,1.3,1,2.7,2.1,4,3.1,34.2,26.9,70.8,51,109.3,71.4,2.7,1.4,5.4,2.9,8.1,4.4,24.7,13.2,50.4,24.3,76.6,34.1.6.2,1.3.5,2,.7,21.4,8,43.1,14.8,65.2,20.8,1.7.5,3.5.9,5.2,1.4,29.1,7.8,58.9,13.1,88.7,17.1,1.1.2,2.3.3,3.5.5,66.7,8.7,135.1,6.3,201.4-4.1,1.9-.3,3.7-.6,5.6-.9,40.5-6.3,79.8-17,118.5-30.5.7-.2,1.3-.5,2-.7,68.8-23.8,134.1-59.1,192-103.3,1.2-.9,2.4-1.8,3.6-2.8,14.1-10.7,27.8-22.1,40.8-34,2.1-1.9,4.2-3.8,6.3-5.6,10.4-9.1,20.4-18.8,30.2-28.6.8-.8,1.6-1.6,2.4-2.4,4.1-4.1,8.1-8.4,11.9-12.8,2.6-3,5.3-5.8,8-8.7,4.7-5,9.1-10.1,13.4-15.4,2.1-2.5,4.1-5,6.3-7.5,5.4-6.3,10.6-12.8,15.6-19.4.9-1.2,1.9-2.5,2.8-3.7,18.2-23.8,34.6-49.1,49.6-75.1.5-.8.9-1.6,1.4-2.4,41.1-71.9,69.1-150.1,83.6-231.6.4-2,.7-4,1.1-6,11.3-62.8,13-129.6,5.9-193-.1-1.3-.3-2.6-.4-3.9-1-8.7-2.2-17.4-3.6-26.1q-.2-1-.3-2.1c-12.5-82.3-38.7-162.7-88.7-252.9q-.7-1.2-1.4-2.5c-15.8-27.4-34.1-53.6-53.6-78.5-.9-1.1-1.7-2.3-2.6-3.4-6.4-8.3-13.1-16.2-20-24-1.7-1.9-3.3-3.8-4.9-5.7-3.6-4.1-7.2-8-10.9-12-2.7-2.9-5.3-5.8-7.8-8.7-4.2-4.8-8.6-9.3-13.2-13.8q-1.2-1.2-2.4-2.5c-4.3-4.3-8.7-8.5-13.4-12.4-1.8-1.6-3.5-3.3-5.3-5-3.7-3.7-7.5-7.1-11.5-10.5-1-.9-2-1.7-3-2.6-14.3-12.3-28.8-24.2-44-35.4q-1-.8-2.1-1.6c-32.2-23.7-66.3-44.2-101.9-62.4q-1.1-.5-2.1-1.1c-4.6-2.4-9.2-4.7-13.9-6.9-.9-.4-1.8-.9-2.7-1.3-29.9-14.4-60.7-25.7-92.3-35.7-.7-.2-1.3-.4-2-.6-27.3-8.6-54.8-15.3-83-20.4-1-.2-2.1-.4-3.1-.6-3-.5-6-1.1-9.1-1.6-.9-.2-1.7-.3-2.6-.5-12.5-2.2-25.1-3.6-37.8-4.8-1.2-.1-2.3-.2-3.5-.4-23.3-2.3-46.5-3.6-69.9-3.5-1.2,0-2.5,0-3.8,0-18.5,0-36.9.7-55.4,2.2Z"/>
  <path class="st12" d="M1482.8,1648.4h287v19h-287v-19Z"/>
  <path class="st14" d="M2058,1118h487v129h-349v148h288v20h-288v25h331v129h-331v232h-138v-683Z"/>
  <path class="st8" d="M1416,1118h138v509h197v-179c18.6,0,37.1,0,56.2,0q8.7,0,17.6,0,7.2,0,10.6,0c2.3,0,4.7,0,7,0,14.6,0,29,.2,43.5,1.1v19h-115v179h-217v25h241v-179h135v309h-514v-684Z"/>
  <path class="st11" d="M1822.7,573.8q1.2,0,2.4,0c6,0,12,0,18.1,0q1.3,0,2.7,0c51,0,101.7,3.4,151.5,14.7,2.9.6,5.7,1.2,8.6,1.8,89.9,17.8,177.3,55.9,315.1,150.8-3.6,0-5.1-.9-8.2-2.6-1.1-.6-2.1-1.1-3.2-1.7-1.1-.6-2.3-1.2-3.4-1.9-1.2-.6-2.4-1.3-3.5-1.9-2.4-1.3-4.8-2.6-7.2-3.9-3.1-1.7-6.3-3.4-9.4-5.1-8.4-4.5-16.8-9.2-24.9-14.2-9.8-6.1-19.9-11.6-30.1-17-2.8-1.5-5.7-3-8.5-4.6-33.9-18.2-69.7-32.7-106.2-44.9-3-1-6-2.1-9-3.1-27.9-9.8-57-16.8-86-22.4-3.3-.6-6.7-1.3-10-2-23.3-4.6-46.8-7.4-70.5-9.4-.7,0-1.5-.1-2.3-.2-5.2-.4-10.4-.8-15.5-1.1q-1.1,0-2.3-.1c-15.4-1-30.8-1.1-46.2-1-1.3,0-2.6,0-3.9,0-32.4,0-64.3,1.8-96.4,5.9-2,.3-4.1.5-6.1.8-35.7,4.6-71.6,12.2-106,22.5q-1.7.5-3.5,1.1c-87,26.1-169,66.9-241.5,121.9-.6.4-1.2.9-1.8,1.3-17.2,13-33.9,26.8-49.8,41.4-2.2,2-4.4,3.9-6.6,5.8-3.7,3.2-7.2,6.7-10.7,10.2-2,2-4.1,3.8-6.2,5.7-6.6,5.7-12.5,11.9-18.2,18.5-2,2.3-4.1,4.4-6.3,6.5-4,4-7.8,8.2-11.5,12.5-.9,1.1-1.8,2.1-2.7,3.2-2.6,3-5.2,6-7.7,9-1.5,1.7-2.9,3.4-4.4,5.1-5.8,6.7-11.3,13.6-16.6,20.7-1.7,2.2-3.4,4.4-5.1,6.6-9.5,12.2-18.2,24.8-26.6,37.7-1.5,2.3-3,4.5-4.5,6.8-6.8,10-13.1,20.4-19.2,30.9-.5.8-1,1.7-1.5,2.5-8.7,14.9-16.8,30.1-24.5,45.5-.5,1-1,2-1.5,3.1-38.7,77.1-62.7,162.3-73.5,262.9-.1,1.1-.2,2.3-.3,3.5-.3,3-.6,6-.8,9,0,.8-.1,1.6-.2,2.4-1.5,18.2-1.8,36.5-1.8,54.8,0,1.2,0,2.3,0,3.5,0,45.4,2.3,93.1,12.6,137.5.7,2.9,1.3,5.8,1.9,8.6,1.3,6.1,2.6,12.2,3.9,18.2.5,2.2.9,4.4,1.4,6.6,3.1,14.5,7,28.7,11.3,42.9q.4,1.4.9,2.8c2,6.4,4,12.8,6.1,19.2q.5,1.4,1,2.9c9.1,27.7,20,54.8,32.6,81.1,1.4,3,2.8,5.9,4.2,8.9,13.3,28.5,29.1,55.7,46.2,82.1.7,1,1.3,2.1,2,3.1,10.1,15.3,20.8,30.3,32,44.9q.7.9,1.4,1.8c5.8,7.5,11.8,14.8,17.9,22,3.3,3.9,6.6,7.9,9.8,11.9,1.6,1.9,3.1,3.6,4.9,5.2l-1,2c-4.8-4.7-9.5-9.5-13.9-14.6-2.3-2.6-4.7-5.2-7.2-7.8-5.5-5.8-10.7-11.6-15.7-17.9-2.1-2.6-4.3-5.1-6.5-7.7-6.7-7.7-13-15.8-19.2-24-1.5-2-3.1-4-4.6-6-23.7-31.2-44.7-64.4-63-99.1-.5-.9-1-1.9-1.5-2.9-17-32-31.5-65-43.5-99.1-.2-.7-.5-1.3-.7-2-8-22.7-14.9-45.6-20.8-68.9-.5-2-1-4-1.5-6-10.9-43-17.4-87.8-20-132.1,0-.9-.1-1.7-.2-2.6-2-30.8-1.4-61.9.5-92.6,0-1,.1-2,.2-3.1,1.6-24.6,4.5-48.9,8.6-73.2.2-.9.3-1.8.5-2.7,2.7-15.6,5.8-31,9.5-46.3.8-3.4,1.6-6.8,2.4-10.3,2.5-10.9,5.3-21.6,8.8-32.2,1.2-3.6,2.3-7.2,3.3-10.8,15.3-51.6,37.7-101.9,64.7-148.4,1.5-2.6,3-5.2,4.5-7.8,14-24.5,30.1-48.4,47.1-70.9.5-.7,1.1-1.4,1.7-2.2,15.2-20,31.3-39.4,48.5-57.7,1.8-1.9,3.5-3.8,5.3-5.8,6.4-7.1,13-13.9,19.8-20.6.5-.5.9-1,1.4-1.4,5-5.1,10.1-10,15.6-14.7,3-2.6,5.8-5.3,8.6-8,5-4.7,10-9.1,15.4-13.3,2.6-2.1,5.2-4.3,7.8-6.6,7.5-6.5,15.2-12.4,23.2-18.3,2.7-2,5.4-4.2,8.1-6.3,15-11.5,30.8-22,46.8-32.1.8-.5,1.7-1.1,2.5-1.6,59.3-37.7,124.7-67.7,192.5-86.4,1.6-.4,3.1-.9,4.7-1.3,3.7-1,7.4-2.1,11-3,2.4-.6,4.7-1.3,7.1-2,53.8-14.9,111-22.6,166.8-22.9Z"/>
  <path class="st17" d="M1874.5,602.4c1.3,0,2.6,0,3.9,0,19.8,0,39.4.5,59.2,2.2,1.4.1,2.7.2,4.1.3,9.3.8,18.6,1.7,27.9,2.7,1,0,1.9.2,3,.3,28.3,2.9,56.7,8.9,84.3,16,2.8.7,5.7,1.4,8.5,2.1,16.1,3.8,31.7,8.8,47.3,14,1.9.6,3.7,1.2,5.6,1.9,26.8,8.9,52.9,19.3,78.4,31.4,3,1.4,6.1,2.9,9.1,4.3,21,9.9,41.2,20.8,60.8,33.1q-3,1-5.4,0c-1-.5-1.9-1-2.9-1.5q-1.6-.8-3.3-1.7c-.6-.3-1.2-.6-1.8-.9-3.2-1.6-6.3-3.2-9.5-4.9-.7-.3-1.3-.7-2-1-69.9-35.2-147.3-59.8-224.8-70.6-3.4-.5-6.8-1-10.2-1.5-32.7-4.7-65.3-6.5-98.3-6.4-4.5,0-9.1,0-13.6,0-23.2,0-46.1,1-69.1,3.4-2,.2-4,.4-6,.6-4.8.5-9.6,1.1-14.4,1.6q-1.3.2-2.5.3c-75.2,9.3-149.6,31.2-218.2,63.4-1,.4-1.9.9-2.9,1.4-58.1,27.3-112.8,61.4-162.1,102.6-.5.4-1,.9-1.6,1.3-6.4,5.4-12.8,10.8-18.9,16.4-2.1,1.9-4.2,3.8-6.4,5.6-11,9.6-21.4,19.8-31.7,30.1-.9.9-1.9,1.8-2.8,2.8-4.5,4.5-8.9,9.1-13.1,14-2.4,2.8-4.9,5.4-7.4,8.1-4.5,4.8-8.7,9.8-12.9,14.9-2,2.5-4.1,4.9-6.1,7.3-6.5,7.6-12.5,15.4-18.5,23.4-1.5,2-3,4-4.5,5.9-13.3,17.4-25.6,35.5-37.1,54.2-.5.8-1,1.6-1.5,2.4-8.6,14-16.7,28.2-24.5,42.6-.5.9-1,1.9-1.5,2.8-38.5,70.7-64,149.5-83.1,276.5-.2,2.5-.5,5-.8,7.5-5.1,47.7-4.7,97.5.4,145.1,0,.9.2,1.7.3,2.6,2,18.9,4.4,37.7,8.3,56.3.6,2.8,1,5.7,1.4,8.5,2.1,13.7,5.6,27.2,9,40.6.3,1.2.6,2.5.9,3.7,10.2,40.1,23.4,79.2,39.9,117.2q.5,1.2,1.1,2.4c4.4,10.1,9.1,20,14.1,29.8.9,1.8,1.8,3.6,2.7,5.4,9,18,18.7,35.3,29.2,52.5q.9,1.5,1.8,3c6.6,10.9,13.5,21.6,20.8,32.1,1.4,2,2.9,4.1,4.3,6.1,6.6,9.5,13.5,18.7,20.6,27.8,1.5,1.9,2.9,3.8,4.4,5.7,5.1,6.6,10.4,13,15.8,19.3,3.1,3.6,6.2,7.3,9.2,11,3,3.7,6.1,7.1,9.5,10.4,1.8,1.8,3.4,3.6,5,5.5,3.5,4,7.2,7.8,11.1,11.5,2.1,2.1,4,4.3,5.9,6.5,3.6,4.2,7.6,8,11.7,11.7,4.6,4.2,9.1,8.5,13.5,12.9,1.7,1.7,3.5,3.3,5.3,4.9,3,2.6,6,5.3,9,8,4.7,4.3,9.6,8.3,14.5,12.3,1.9,1.5,3.7,3,5.6,4.6,1.4,1.1,2.8,2.3,4.2,3.4.7.5,1.3,1.1,2,1.6,4.5,3.7,9.1,7.2,13.8,10.7-4,0-6-1.9-9.1-4.2-.6-.4-1.2-.9-1.8-1.3-7.1-5.2-14-10.5-21-15.9-1.3-1-2.6-2-3.9-3-8.7-6.7-17-13.7-25.2-20.9-3.1-2.7-6.3-5.4-9.4-8.1-.6-.5-1.1-1-1.7-1.5-2.6-2.2-5.2-4.4-7.8-6.6-2.2-1.9-4.3-3.8-6.3-5.9-2-2-4-4-6-6-4.1-4.1-8.3-8.2-12.4-12.3-2.5-2.5-5-4.9-7.5-7.4-2.9-2.9-5.8-5.7-8.7-8.6-.9-.9-1.8-1.7-2.7-2.6-5.2-5.2-9.9-10.5-14.5-16.3-2.7-3.3-5.5-6.5-8.3-9.7-5.6-6.4-10.9-13-16.1-19.8-1.6-2.1-3.2-4.1-4.8-6.2-24.7-31.4-46.4-64.8-65.7-99.8-.6-1.1-1.2-2.1-1.8-3.2-23.5-42.6-42.3-87.5-57.2-133.8-.3-.8-.5-1.6-.8-2.4-9-27.6-16.1-56-21-84.7-.1-.8-.3-1.6-.4-2.4-.1-.7-.2-1.4-.3-2.1-.4-2-.9-4.1-1.4-6.1-1.2-4.7-1.8-9.4-2.4-14.2-.1-.9-.2-1.9-.4-2.9-.4-3.1-.8-6.1-1.2-9.2-.1-1-.3-2.1-.4-3.2-1.7-13.3-3.3-26.6-4.5-40-.1-1.2-.2-2.4-.3-3.7-1.7-19.3-2.1-38.6-2-58,0-1.2,0-2.3,0-3.5,0-18.6.5-37.1,2.2-55.7q0-1.1.2-2.2c4.8-53.9,13.2-108.1,29.8-159.8q.3-1,.6-1.9c18.3-57.2,41.6-112.4,72.4-164.1q.8-1.3,1.6-2.7c9.2-15.5,19.1-30.5,29.4-45.3.5-.7,1-1.4,1.5-2.2,6.9-9.8,14.1-19.3,21.5-28.8q.7-.9,1.5-1.9c5.5-7.2,11.3-14.2,17.2-21.1,2.9-3.4,5.8-6.8,8.6-10.3,5.8-7.2,12.2-13.8,18.6-20.4,2.2-2.3,4.3-4.6,6.5-6.9.7-.8,1.4-1.5,2.1-2.3,1.3-1.4,2.7-2.9,4-4.3q10.8-11.5,16.4-16.2c3-2.6,5.8-5.3,8.6-8.1,4-4,8.2-7.8,12.5-11.5,1.1-.9,2.1-1.8,3.2-2.7,3-2.6,6-5.2,9.1-7.8,1.7-1.4,3.3-2.9,5-4.3,7.9-6.8,16.2-13.2,24.6-19.5,2.1-1.6,4.3-3.3,6.4-4.9,11.5-8.9,23.5-17,35.7-25.1q1.3-.8,2.5-1.7c10.4-6.9,20.9-13.6,31.7-19.9q1.4-.8,2.8-1.6c13.5-7.9,27.3-15.3,41.2-22.4.7-.4,1.5-.8,2.3-1.2,4.6-2.3,9.1-4.6,13.7-6.8.7-.3,1.4-.7,2.1-1,15-7.4,30.4-13.7,45.9-20,.9-.4,1.8-.7,2.8-1.1,24.5-9.8,49.8-18,75.2-24.9.8-.2,1.7-.5,2.5-.7,15.6-4.2,31.3-7.8,47.1-10.9,1.2-.2,2.4-.5,3.6-.7,17.5-3.5,35-6.8,52.8-8.6,1.6-.2,3.3-.3,4.9-.5,5.5-.6,11-1.1,16.5-1.7.9,0,1.7-.2,2.6-.3,23.3-2.3,46.5-2.8,69.9-2.7Z"/>
  <path class="st2" d="M1994,1062h488v20h20v20h-472v664h-16v-20h-20v-684Z"/>
  <path class="st7" d="M1376.7,1078.6h139v20h-119v664h-20v-684Z"/>
  <path class="st4" d="M1356.7,1059.6h139v20h-119v664h-20v-684Z"/>
  <path class="st16" d="M1751,1448c18.6,0,37.1,0,56.2,0q8.7,0,17.6,0,7.2,0,10.6,0c2.3,0,4.7,0,7,0,14.6,0,29,.2,43.5,1.1v19h-115v179h-217v-20h197v-179Z"/>
  <path class="st1" d="M1731,1429h135v19h-115v179h-197v-19h177v-179Z"/>
  <path class="st10" d="M2196,1395h287v19h-287v-19Z"/>
  <path class="st15" d="M2196,1375h268v20h-268v-20Z"/>
  <path class="st0" d="M1289,1850c4,1.6,6.5,4.4,9.2,7.6.5.5.9,1,1.4,1.6,1.1,1.3,2.2,2.5,3.4,3.8l-1,2q-9.6-9.2-13-15Z"/>
  <path class="st6" d="M1427,1974q8.4,6.2,12,10c-5.1-1.6-8.9-4.7-13-8l1-2Z"/>
  <path class="st9" d="M2253,704c3.6,1.3,6.8,3,10,5q-3,1-4.8.2c-1.7-1.1-3.5-2.1-5.2-3.2v-2Z"/>
  <path class="st3" d="M1419,1969c3.9,1.3,5.8,2.5,8,6-3-1.1-5.3-2.2-8-4v-2Z"/>
  <path class="st5" d="M2004,1069.1h488v20h-472v664h-16v-684Z"/>
  <path class="st12" d="M2019,1088.1h488v20h-472v664h-16v-684Z"/>
  <path class="st12" d="M2196,1414h287v19h-287v-19Z"/>
  <path class="st12" d="M2215,1414h287v19h-287v-19Z"/>
  <path class="st12" d="M1398.2,1097.6h139v20h-119v664h-20v-684Z"/>
  <path class="st12" d="M1768.5,1469.4h135v19h-115v179h-197v-19h177v-179Z"/>
  <path class="st10" d="M2197.7,1395h287v19h-287v-19Z"/>
</svg>